ISO-10303-21;
HEADER;
FILE_DESCRIPTION(('FreeCAD Model'),'2;1');
FILE_NAME('Open CASCADE Shape Model','2026-10-06T17:34:20',(''),(''),
  'Open CASCADE STEP processor 7.8','FreeCAD','Unknown');
FILE_SCHEMA(('AUTOMOTIVE_DESIGN { 1 0 10303 214 1 1 1 1 }'));
ENDSEC;
DATA;
#1 = APPLICATION_PROTOCOL_DEFINITION('international standard',
  'automotive_design',2000,#2);
#2 = APPLICATION_CONTEXT(
  'core data for automotive mechanical design processes');
#3 = SHAPE_DEFINITION_REPRESENTATION(#4,#10);
#4 = PRODUCT_DEFINITION_SHAPE('','',#5);
#5 = PRODUCT_DEFINITION('design','',#6,#9);
#6 = PRODUCT_DEFINITION_FORMATION('','',#7);
#7 = PRODUCT('rod-clamp-16mm','rod-clamp-16mm','',(#8));
#8 = PRODUCT_CONTEXT('',#2,'mechanical');
#9 = PRODUCT_DEFINITION_CONTEXT('part definition',#2,'design');
#10 = ADVANCED_BREP_SHAPE_REPRESENTATION('',(#11,#15),#781);
#11 = AXIS2_PLACEMENT_3D('',#12,#13,#14);
#12 = CARTESIAN_POINT('',(0.,0.,0.));
#13 = DIRECTION('',(0.,0.,1.));
#14 = DIRECTION('',(1.,0.,-0.));
#15 = MANIFOLD_SOLID_BREP('',#16);
#16 = CLOSED_SHELL('',(#17,#84,#109,#192,#216,#241,#265,#340,#357,#381,
    #411,#428,#462,#479,#528,#572,#589,#606,#640,#657,#674,#691,#703,
    #728,#740,#765));
#17 = ADVANCED_FACE('',(#18,#29),#79,.F.);
#18 = FACE_BOUND('',#19,.F.);
#19 = EDGE_LOOP('',(#20));
#20 = ORIENTED_EDGE('',*,*,#21,.T.);
#21 = EDGE_CURVE('',#22,#22,#24,.T.);
#22 = VERTEX_POINT('',#23);
#23 = CARTESIAN_POINT('',(3.25,-18.,3.));
#24 = CIRCLE('',#25,3.25);
#25 = AXIS2_PLACEMENT_3D('',#26,#27,#28);
#26 = CARTESIAN_POINT('',(0.,-18.,3.));
#27 = DIRECTION('',(-2.2E-16,0.,1.));
#28 = DIRECTION('',(1.,1.29E-15,2.2E-16));
#29 = FACE_BOUND('',#30,.F.);
#30 = EDGE_LOOP('',(#31,#41,#49,#57,#65,#73));
#31 = ORIENTED_EDGE('',*,*,#32,.F.);
#32 = EDGE_CURVE('',#33,#35,#37,.T.);
#33 = VERTEX_POINT('',#34);
#34 = CARTESIAN_POINT('',(10.,-20.,3.));
#35 = VERTEX_POINT('',#36);
#36 = CARTESIAN_POINT('',(10.,-11.66190378969,3.));
#37 = LINE('',#38,#39);
#38 = CARTESIAN_POINT('',(10.,-25.,3.));
#39 = VECTOR('',#40,1.);
#40 = DIRECTION('',(0.,1.,0.));
#41 = ORIENTED_EDGE('',*,*,#42,.T.);
#42 = EDGE_CURVE('',#33,#43,#45,.T.);
#43 = VERTEX_POINT('',#44);
#44 = CARTESIAN_POINT('',(5.,-25.,3.));
#45 = LINE('',#46,#47);
#46 = CARTESIAN_POINT('',(7.5,-22.5,3.));
#47 = VECTOR('',#48,1.);
#48 = DIRECTION('',(-0.707106781187,-0.707106781187,0.));
#49 = ORIENTED_EDGE('',*,*,#50,.T.);
#50 = EDGE_CURVE('',#43,#51,#53,.T.);
#51 = VERTEX_POINT('',#52);
#52 = CARTESIAN_POINT('',(-5.,-25.,3.));
#53 = LINE('',#54,#55);
#54 = CARTESIAN_POINT('',(10.,-25.,3.));
#55 = VECTOR('',#56,1.);
#56 = DIRECTION('',(-1.,-0.,-1.1E-16));
#57 = ORIENTED_EDGE('',*,*,#58,.T.);
#58 = EDGE_CURVE('',#51,#59,#61,.T.);
#59 = VERTEX_POINT('',#60);
#60 = CARTESIAN_POINT('',(-10.,-20.,3.));
#61 = LINE('',#62,#63);
#62 = CARTESIAN_POINT('',(-2.5,-27.5,3.));
#63 = VECTOR('',#64,1.);
#64 = DIRECTION('',(-0.707106781187,0.707106781187,-1.6E-16));
#65 = ORIENTED_EDGE('',*,*,#66,.F.);
#66 = EDGE_CURVE('',#67,#59,#69,.T.);
#67 = VERTEX_POINT('',#68);
#68 = CARTESIAN_POINT('',(-10.,-11.66190378969,3.));
#69 = LINE('',#70,#71);
#70 = CARTESIAN_POINT('',(-10.,-12.5,3.));
#71 = VECTOR('',#72,1.);
#72 = DIRECTION('',(0.,-1.,0.));
#73 = ORIENTED_EDGE('',*,*,#74,.F.);
#74 = EDGE_CURVE('',#35,#67,#75,.T.);
#75 = LINE('',#76,#77);
#76 = CARTESIAN_POINT('',(10.,-11.66190378969,3.));
#77 = VECTOR('',#78,1.);
#78 = DIRECTION('',(-1.,1.1E-16,-1.1E-16));
#79 = PLANE('',#80);
#80 = AXIS2_PLACEMENT_3D('',#81,#82,#83);
#81 = CARTESIAN_POINT('',(10.,-25.,3.));
#82 = DIRECTION('',(1.1E-16,0.,-1.));
#83 = DIRECTION('',(1.1E-16,1.,1.21E-32));
#84 = ADVANCED_FACE('',(#85),#104,.F.);
#85 = FACE_BOUND('',#86,.T.);
#86 = EDGE_LOOP('',(#87,#95,#96,#97));
#87 = ORIENTED_EDGE('',*,*,#88,.F.);
#88 = EDGE_CURVE('',#22,#89,#91,.T.);
#89 = VERTEX_POINT('',#90);
#90 = CARTESIAN_POINT('',(2.75,-18.,2.5));
#91 = LINE('',#92,#93);
#92 = CARTESIAN_POINT('',(2.75,-18.,2.5));
#93 = VECTOR('',#94,1.);
#94 = DIRECTION('',(-0.707106781187,-9.1E-16,-0.707106781187));
#95 = ORIENTED_EDGE('',*,*,#21,.T.);
#96 = ORIENTED_EDGE('',*,*,#88,.T.);
#97 = ORIENTED_EDGE('',*,*,#98,.F.);
#98 = EDGE_CURVE('',#89,#89,#99,.T.);
#99 = CIRCLE('',#100,2.75);
#100 = AXIS2_PLACEMENT_3D('',#101,#102,#103);
#101 = CARTESIAN_POINT('',(0.,-18.,2.5));
#102 = DIRECTION('',(-2.2E-16,0.,1.));
#103 = DIRECTION('',(1.,1.29E-15,2.2E-16));
#104 = CONICAL_SURFACE('',#105,2.75,0.785398163397);
#105 = AXIS2_PLACEMENT_3D('',#106,#107,#108);
#106 = CARTESIAN_POINT('',(0.,-18.,2.5));
#107 = DIRECTION('',(-2.2E-16,-0.,1.));
#108 = DIRECTION('',(1.,1.29E-15,2.2E-16));
#109 = ADVANCED_FACE('',(#110),#187,.T.);
#110 = FACE_BOUND('',#111,.T.);
#111 = EDGE_LOOP('',(#112,#113,#121,#129,#138,#146,#154,#162,#171,#180)
  );
#112 = ORIENTED_EDGE('',*,*,#32,.F.);
#113 = ORIENTED_EDGE('',*,*,#114,.T.);
#114 = EDGE_CURVE('',#33,#115,#117,.T.);
#115 = VERTEX_POINT('',#116);
#116 = CARTESIAN_POINT('',(10.,-20.,3.552713678801E-15));
#117 = LINE('',#118,#119);
#118 = CARTESIAN_POINT('',(10.,-20.,3.));
#119 = VECTOR('',#120,1.);
#120 = DIRECTION('',(-0.,-2.2E-16,-1.));
#121 = ORIENTED_EDGE('',*,*,#122,.T.);
#122 = EDGE_CURVE('',#115,#123,#125,.T.);
#123 = VERTEX_POINT('',#124);
#124 = CARTESIAN_POINT('',(10.,-8.5,1.7763568394E-15));
#125 = LINE('',#126,#127);
#126 = CARTESIAN_POINT('',(10.,-25.,9.8E-16));
#127 = VECTOR('',#128,1.);
#128 = DIRECTION('',(0.,1.,0.));
#129 = ORIENTED_EDGE('',*,*,#130,.F.);
#130 = EDGE_CURVE('',#131,#123,#133,.T.);
#131 = VERTEX_POINT('',#132);
#132 = CARTESIAN_POINT('',(10.,8.5,0.));
#133 = CIRCLE('',#134,8.5);
#134 = AXIS2_PLACEMENT_3D('',#135,#136,#137);
#135 = CARTESIAN_POINT('',(10.,-7.7E-16,0.));
#136 = DIRECTION('',(1.,-2.2E-16,0.));
#137 = DIRECTION('',(2.2E-16,1.,0.));
#138 = ORIENTED_EDGE('',*,*,#139,.T.);
#139 = EDGE_CURVE('',#131,#140,#142,.T.);
#140 = VERTEX_POINT('',#141);
#141 = CARTESIAN_POINT('',(10.,20.,-5.329070518201E-15));
#142 = LINE('',#143,#144);
#143 = CARTESIAN_POINT('',(10.,8.,0.));
#144 = VECTOR('',#145,1.);
#145 = DIRECTION('',(0.,1.,0.));
#146 = ORIENTED_EDGE('',*,*,#147,.T.);
#147 = EDGE_CURVE('',#140,#148,#150,.T.);
#148 = VERTEX_POINT('',#149);
#149 = CARTESIAN_POINT('',(10.,20.,3.));
#150 = LINE('',#151,#152);
#151 = CARTESIAN_POINT('',(10.,20.,1.11E-15));
#152 = VECTOR('',#153,1.);
#153 = DIRECTION('',(0.,2.2E-16,1.));
#154 = ORIENTED_EDGE('',*,*,#155,.F.);
#155 = EDGE_CURVE('',#156,#148,#158,.T.);
#156 = VERTEX_POINT('',#157);
#157 = CARTESIAN_POINT('',(10.,11.661903789691,3.));
#158 = LINE('',#159,#160);
#159 = CARTESIAN_POINT('',(10.,10.583005244258,3.));
#160 = VECTOR('',#161,1.);
#161 = DIRECTION('',(0.,1.,0.));
#162 = ORIENTED_EDGE('',*,*,#163,.F.);
#163 = EDGE_CURVE('',#164,#156,#166,.T.);
#164 = VERTEX_POINT('',#165);
#165 = CARTESIAN_POINT('',(10.,10.262475334928,3.96));
#166 = CIRCLE('',#167,1.5);
#167 = AXIS2_PLACEMENT_3D('',#168,#169,#170);
#168 = CARTESIAN_POINT('',(10.,11.661903789691,4.5));
#169 = DIRECTION('',(1.,-1.1E-16,1.1E-16));
#170 = DIRECTION('',(-1.1E-16,0.,1.));
#171 = ORIENTED_EDGE('',*,*,#172,.T.);
#172 = EDGE_CURVE('',#164,#173,#175,.T.);
#173 = VERTEX_POINT('',#174);
#174 = CARTESIAN_POINT('',(10.,-10.26247533492,3.96));
#175 = CIRCLE('',#176,11.);
#176 = AXIS2_PLACEMENT_3D('',#177,#178,#179);
#177 = CARTESIAN_POINT('',(10.,0.,0.));
#178 = DIRECTION('',(1.,0.,0.));
#179 = DIRECTION('',(0.,1.,0.));
#180 = ORIENTED_EDGE('',*,*,#181,.F.);
#181 = EDGE_CURVE('',#35,#173,#182,.T.);
#182 = CIRCLE('',#183,1.5);
#183 = AXIS2_PLACEMENT_3D('',#184,#185,#186);
#184 = CARTESIAN_POINT('',(10.,-11.66190378969,4.5));
#185 = DIRECTION('',(1.,-1.1E-16,1.1E-16));
#186 = DIRECTION('',(-1.1E-16,0.,1.));
#187 = PLANE('',#188);
#188 = AXIS2_PLACEMENT_3D('',#189,#190,#191);
#189 = CARTESIAN_POINT('',(10.,0.,3.469281125827));
#190 = DIRECTION('',(1.,0.,0.));
#191 = DIRECTION('',(0.,0.,1.));
#192 = ADVANCED_FACE('',(#193),#211,.T.);
#193 = FACE_BOUND('',#194,.F.);
#194 = EDGE_LOOP('',(#195,#196,#197,#205));
#195 = ORIENTED_EDGE('',*,*,#42,.F.);
#196 = ORIENTED_EDGE('',*,*,#114,.T.);
#197 = ORIENTED_EDGE('',*,*,#198,.T.);
#198 = EDGE_CURVE('',#115,#199,#201,.T.);
#199 = VERTEX_POINT('',#200);
#200 = CARTESIAN_POINT('',(5.,-25.,-1.7763568394E-15));
#201 = LINE('',#202,#203);
#202 = CARTESIAN_POINT('',(7.5,-22.5,2.1E-16));
#203 = VECTOR('',#204,1.);
#204 = DIRECTION('',(-0.707106781187,-0.707106781187,0.));
#205 = ORIENTED_EDGE('',*,*,#206,.F.);
#206 = EDGE_CURVE('',#43,#199,#207,.T.);
#207 = LINE('',#208,#209);
#208 = CARTESIAN_POINT('',(5.,-25.,3.));
#209 = VECTOR('',#210,1.);
#210 = DIRECTION('',(-0.,-2.2E-16,-1.));
#211 = PLANE('',#212);
#212 = AXIS2_PLACEMENT_3D('',#213,#214,#215);
#213 = CARTESIAN_POINT('',(7.5,-22.5,3.));
#214 = DIRECTION('',(0.707106781187,-0.707106781187,1.4E-16));
#215 = DIRECTION('',(1.100505063388E-17,2.089949493661E-16,1.));
#216 = ADVANCED_FACE('',(#217),#236,.F.);
#217 = FACE_BOUND('',#218,.T.);
#218 = EDGE_LOOP('',(#219,#220,#228,#235));
#219 = ORIENTED_EDGE('',*,*,#181,.T.);
#220 = ORIENTED_EDGE('',*,*,#221,.T.);
#221 = EDGE_CURVE('',#173,#222,#224,.T.);
#222 = VERTEX_POINT('',#223);
#223 = CARTESIAN_POINT('',(-10.,-10.26247533492,3.96));
#224 = LINE('',#225,#226);
#225 = CARTESIAN_POINT('',(10.,-10.26247533492,3.96));
#226 = VECTOR('',#227,1.);
#227 = DIRECTION('',(-1.,1.1E-16,-1.1E-16));
#228 = ORIENTED_EDGE('',*,*,#229,.F.);
#229 = EDGE_CURVE('',#67,#222,#230,.T.);
#230 = CIRCLE('',#231,1.5);
#231 = AXIS2_PLACEMENT_3D('',#232,#233,#234);
#232 = CARTESIAN_POINT('',(-10.,-11.66190378969,4.5));
#233 = DIRECTION('',(1.,-1.1E-16,1.1E-16));
#234 = DIRECTION('',(-1.1E-16,0.,1.));
#235 = ORIENTED_EDGE('',*,*,#74,.F.);
#236 = CYLINDRICAL_SURFACE('',#237,1.5);
#237 = AXIS2_PLACEMENT_3D('',#238,#239,#240);
#238 = CARTESIAN_POINT('',(10.,-11.66190378969,4.5));
#239 = DIRECTION('',(-1.,1.1E-16,-1.1E-16));
#240 = DIRECTION('',(1.1E-16,0.,-1.));
#241 = ADVANCED_FACE('',(#242),#260,.T.);
#242 = FACE_BOUND('',#243,.T.);
#243 = EDGE_LOOP('',(#244,#252,#253,#254));
#244 = ORIENTED_EDGE('',*,*,#245,.F.);
#245 = EDGE_CURVE('',#199,#246,#248,.T.);
#246 = VERTEX_POINT('',#247);
#247 = CARTESIAN_POINT('',(-5.,-25.,-1.7763568394E-15));
#248 = LINE('',#249,#250);
#249 = CARTESIAN_POINT('',(10.,-25.,4.9E-16));
#250 = VECTOR('',#251,1.);
#251 = DIRECTION('',(-1.,-0.,-1.1E-16));
#252 = ORIENTED_EDGE('',*,*,#206,.F.);
#253 = ORIENTED_EDGE('',*,*,#50,.T.);
#254 = ORIENTED_EDGE('',*,*,#255,.F.);
#255 = EDGE_CURVE('',#246,#51,#256,.T.);
#256 = LINE('',#257,#258);
#257 = CARTESIAN_POINT('',(-5.,-25.,-4.7906E-13));
#258 = VECTOR('',#259,1.);
#259 = DIRECTION('',(-1.1E-16,2.2E-16,1.));
#260 = PLANE('',#261);
#261 = AXIS2_PLACEMENT_3D('',#262,#263,#264);
#262 = CARTESIAN_POINT('',(10.,-25.,3.));
#263 = DIRECTION('',(0.,-1.,1.1E-16));
#264 = DIRECTION('',(0.,-1.1E-16,-1.));
#265 = ADVANCED_FACE('',(#266),#335,.F.);
#266 = FACE_BOUND('',#267,.F.);
#267 = EDGE_LOOP('',(#268,#278,#287,#294,#295,#296,#304,#312,#321,#329)
  );
#268 = ORIENTED_EDGE('',*,*,#269,.T.);
#269 = EDGE_CURVE('',#270,#272,#274,.T.);
#270 = VERTEX_POINT('',#271);
#271 = CARTESIAN_POINT('',(-10.,20.,3.));
#272 = VERTEX_POINT('',#273);
#273 = CARTESIAN_POINT('',(-10.,11.661903789691,3.));
#274 = LINE('',#275,#276);
#275 = CARTESIAN_POINT('',(-10.,5.291502622129,3.));
#276 = VECTOR('',#277,1.);
#277 = DIRECTION('',(0.,-1.,0.));
#278 = ORIENTED_EDGE('',*,*,#279,.F.);
#279 = EDGE_CURVE('',#280,#272,#282,.T.);
#280 = VERTEX_POINT('',#281);
#281 = CARTESIAN_POINT('',(-10.,10.262475334928,3.96));
#282 = CIRCLE('',#283,1.5);
#283 = AXIS2_PLACEMENT_3D('',#284,#285,#286);
#284 = CARTESIAN_POINT('',(-10.,11.661903789691,4.5));
#285 = DIRECTION('',(1.,-1.1E-16,1.1E-16));
#286 = DIRECTION('',(-1.1E-16,0.,1.));
#287 = ORIENTED_EDGE('',*,*,#288,.T.);
#288 = EDGE_CURVE('',#280,#222,#289,.T.);
#289 = CIRCLE('',#290,11.);
#290 = AXIS2_PLACEMENT_3D('',#291,#292,#293);
#291 = CARTESIAN_POINT('',(-10.,2.22E-15,0.));
#292 = DIRECTION('',(1.,-1.1E-16,0.));
#293 = DIRECTION('',(1.1E-16,1.,0.));
#294 = ORIENTED_EDGE('',*,*,#229,.F.);
#295 = ORIENTED_EDGE('',*,*,#66,.T.);
#296 = ORIENTED_EDGE('',*,*,#297,.F.);
#297 = EDGE_CURVE('',#298,#59,#300,.T.);
#298 = VERTEX_POINT('',#299);
#299 = CARTESIAN_POINT('',(-10.,-20.,-1.7763568394E-15));
#300 = LINE('',#301,#302);
#301 = CARTESIAN_POINT('',(-10.,-20.,-4.8073E-13));
#302 = VECTOR('',#303,1.);
#303 = DIRECTION('',(-1.1E-16,2.2E-16,1.));
#304 = ORIENTED_EDGE('',*,*,#305,.F.);
#305 = EDGE_CURVE('',#306,#298,#308,.T.);
#306 = VERTEX_POINT('',#307);
#307 = CARTESIAN_POINT('',(-10.,-8.5,-3.552713678801E-15));
#308 = LINE('',#309,#310);
#309 = CARTESIAN_POINT('',(-10.,-12.5,-1.24E-15));
#310 = VECTOR('',#311,1.);
#311 = DIRECTION('',(0.,-1.,0.));
#312 = ORIENTED_EDGE('',*,*,#313,.F.);
#313 = EDGE_CURVE('',#314,#306,#316,.T.);
#314 = VERTEX_POINT('',#315);
#315 = CARTESIAN_POINT('',(-10.,8.5,-1.7763568394E-15));
#316 = CIRCLE('',#317,8.5);
#317 = AXIS2_PLACEMENT_3D('',#318,#319,#320);
#318 = CARTESIAN_POINT('',(-10.,4.44E-15,0.));
#319 = DIRECTION('',(1.,-2.2E-16,0.));
#320 = DIRECTION('',(2.2E-16,1.,-2.8E-16));
#321 = ORIENTED_EDGE('',*,*,#322,.F.);
#322 = EDGE_CURVE('',#323,#314,#325,.T.);
#323 = VERTEX_POINT('',#324);
#324 = CARTESIAN_POINT('',(-10.,20.,-7.105427357601E-15));
#325 = LINE('',#326,#327);
#326 = CARTESIAN_POINT('',(-10.,4.,-2.22E-15));
#327 = VECTOR('',#328,1.);
#328 = DIRECTION('',(0.,-1.,0.));
#329 = ORIENTED_EDGE('',*,*,#330,.F.);
#330 = EDGE_CURVE('',#270,#323,#331,.T.);
#331 = LINE('',#332,#333);
#332 = CARTESIAN_POINT('',(-10.,20.,3.));
#333 = VECTOR('',#334,1.);
#334 = DIRECTION('',(1.1E-16,-2.2E-16,-1.));
#335 = PLANE('',#336);
#336 = AXIS2_PLACEMENT_3D('',#337,#338,#339);
#337 = CARTESIAN_POINT('',(-10.,0.,-2.22E-15));
#338 = DIRECTION('',(1.,0.,1.1E-16));
#339 = DIRECTION('',(-1.1E-16,1.1E-16,1.));
#340 = ADVANCED_FACE('',(#341),#352,.F.);
#341 = FACE_BOUND('',#342,.T.);
#342 = EDGE_LOOP('',(#343,#349,#350,#351));
#343 = ORIENTED_EDGE('',*,*,#344,.F.);
#344 = EDGE_CURVE('',#246,#298,#345,.T.);
#345 = LINE('',#346,#347);
#346 = CARTESIAN_POINT('',(-2.5,-27.5,-1.3E-16));
#347 = VECTOR('',#348,1.);
#348 = DIRECTION('',(-0.707106781187,0.707106781187,-1.6E-16));
#349 = ORIENTED_EDGE('',*,*,#255,.T.);
#350 = ORIENTED_EDGE('',*,*,#58,.T.);
#351 = ORIENTED_EDGE('',*,*,#297,.F.);
#352 = PLANE('',#353);
#353 = AXIS2_PLACEMENT_3D('',#354,#355,#356);
#354 = CARTESIAN_POINT('',(-7.5,-22.5,-4.7989E-13));
#355 = DIRECTION('',(0.707106781187,0.707106781187,2.E-16));
#356 = DIRECTION('',(3.064213562373E-16,-2.357864376269E-17,-1.));
#357 = ADVANCED_FACE('',(#358),#376,.F.);
#358 = FACE_BOUND('',#359,.F.);
#359 = EDGE_LOOP('',(#360,#367,#374,#375));
#360 = ORIENTED_EDGE('',*,*,#361,.F.);
#361 = EDGE_CURVE('',#362,#89,#364,.T.);
#362 = VERTEX_POINT('',#363);
#363 = CARTESIAN_POINT('',(2.75,-18.,0.5));
#364 = B_SPLINE_CURVE_WITH_KNOTS('',1,(#365,#366),.UNSPECIFIED.,.F.,.F.,
  (2,2),(-111.0265211559,111.02652115598),.PIECEWISE_BEZIER_KNOTS.);
#365 = CARTESIAN_POINT('',(2.75,-18.,-111.0265211559));
#366 = CARTESIAN_POINT('',(2.75,-18.,111.02652115598));
#367 = ORIENTED_EDGE('',*,*,#368,.T.);
#368 = EDGE_CURVE('',#362,#362,#369,.T.);
#369 = CIRCLE('',#370,2.75);
#370 = AXIS2_PLACEMENT_3D('',#371,#372,#373);
#371 = CARTESIAN_POINT('',(1.78E-15,-18.,0.5));
#372 = DIRECTION('',(-2.2E-16,0.,1.));
#373 = DIRECTION('',(1.,1.29E-15,2.2E-16));
#374 = ORIENTED_EDGE('',*,*,#361,.T.);
#375 = ORIENTED_EDGE('',*,*,#98,.F.);
#376 = CYLINDRICAL_SURFACE('',#377,2.75);
#377 = AXIS2_PLACEMENT_3D('',#378,#379,#380);
#378 = CARTESIAN_POINT('',(0.,-18.,-1.11E-15));
#379 = DIRECTION('',(-1.1E-16,0.,1.));
#380 = DIRECTION('',(1.,0.,1.1E-16));
#381 = ADVANCED_FACE('',(#382,#393),#406,.T.);
#382 = FACE_BOUND('',#383,.T.);
#383 = EDGE_LOOP('',(#384));
#384 = ORIENTED_EDGE('',*,*,#385,.T.);
#385 = EDGE_CURVE('',#386,#386,#388,.T.);
#386 = VERTEX_POINT('',#387);
#387 = CARTESIAN_POINT('',(3.25,-18.,0.));
#388 = CIRCLE('',#389,3.25);
#389 = AXIS2_PLACEMENT_3D('',#390,#391,#392);
#390 = CARTESIAN_POINT('',(1.78E-15,-18.,-1.24E-15));
#391 = DIRECTION('',(-2.2E-16,0.,1.));
#392 = DIRECTION('',(1.,1.29E-15,2.2E-16));
#393 = FACE_BOUND('',#394,.T.);
#394 = EDGE_LOOP('',(#395,#396,#397,#398,#399,#400));
#395 = ORIENTED_EDGE('',*,*,#122,.F.);
#396 = ORIENTED_EDGE('',*,*,#198,.T.);
#397 = ORIENTED_EDGE('',*,*,#245,.T.);
#398 = ORIENTED_EDGE('',*,*,#344,.T.);
#399 = ORIENTED_EDGE('',*,*,#305,.F.);
#400 = ORIENTED_EDGE('',*,*,#401,.F.);
#401 = EDGE_CURVE('',#123,#306,#402,.T.);
#402 = LINE('',#403,#404);
#403 = CARTESIAN_POINT('',(10.,-8.5,9.8E-16));
#404 = VECTOR('',#405,1.);
#405 = DIRECTION('',(-1.,-0.,-2.2E-16));
#406 = PLANE('',#407);
#407 = AXIS2_PLACEMENT_3D('',#408,#409,#410);
#408 = CARTESIAN_POINT('',(10.,-25.,9.8E-16));
#409 = DIRECTION('',(1.1E-16,0.,-1.));
#410 = DIRECTION('',(1.1E-16,1.,1.21E-32));
#411 = ADVANCED_FACE('',(#412),#423,.T.);
#412 = FACE_BOUND('',#413,.T.);
#413 = EDGE_LOOP('',(#414,#415,#421,#422));
#414 = ORIENTED_EDGE('',*,*,#172,.F.);
#415 = ORIENTED_EDGE('',*,*,#416,.T.);
#416 = EDGE_CURVE('',#164,#280,#417,.T.);
#417 = LINE('',#418,#419);
#418 = CARTESIAN_POINT('',(10.,10.262475334928,3.96));
#419 = VECTOR('',#420,1.);
#420 = DIRECTION('',(-1.,1.1E-16,-1.1E-16));
#421 = ORIENTED_EDGE('',*,*,#288,.T.);
#422 = ORIENTED_EDGE('',*,*,#221,.F.);
#423 = CYLINDRICAL_SURFACE('',#424,11.);
#424 = AXIS2_PLACEMENT_3D('',#425,#426,#427);
#425 = CARTESIAN_POINT('',(10.,0.,0.));
#426 = DIRECTION('',(1.,-1.1E-16,0.));
#427 = DIRECTION('',(1.1E-16,1.,0.));
#428 = ADVANCED_FACE('',(#429),#457,.F.);
#429 = FACE_BOUND('',#430,.T.);
#430 = EDGE_LOOP('',(#431,#440,#441,#450));
#431 = ORIENTED_EDGE('',*,*,#432,.F.);
#432 = EDGE_CURVE('',#131,#433,#435,.T.);
#433 = VERTEX_POINT('',#434);
#434 = CARTESIAN_POINT('',(9.5,7.984375,0.499755799741));
#435 = HYPERBOLA('',#436,5.915749635507,5.915749635507);
#436 = AXIS2_PLACEMENT_3D('',#437,#438,#439);
#437 = CARTESIAN_POINT('',(1.5,4.1171875,4.2479242978));
#438 = DIRECTION('',(1.6E-16,-0.695970545354,-0.718070330817));
#439 = DIRECTION('',(1.,-3.588546683883E-18,2.262975029308E-16));
#440 = ORIENTED_EDGE('',*,*,#130,.T.);
#441 = ORIENTED_EDGE('',*,*,#442,.T.);
#442 = EDGE_CURVE('',#123,#443,#445,.T.);
#443 = VERTEX_POINT('',#444);
#444 = CARTESIAN_POINT('',(9.5,-7.984375,0.499755799741));
#445 = HYPERBOLA('',#446,5.915749635507,5.915749635507);
#446 = AXIS2_PLACEMENT_3D('',#447,#448,#449);
#447 = CARTESIAN_POINT('',(1.5,-4.1171875,4.2479242978));
#448 = DIRECTION('',(-1.6E-16,-0.695970545354,0.718070330817));
#449 = DIRECTION('',(1.,-2.299490372566E-16,-5.258100972305E-20));
#450 = ORIENTED_EDGE('',*,*,#451,.F.);
#451 = EDGE_CURVE('',#433,#443,#452,.T.);
#452 = CIRCLE('',#453,8.);
#453 = AXIS2_PLACEMENT_3D('',#454,#455,#456);
#454 = CARTESIAN_POINT('',(9.5,-6.6E-16,0.));
#455 = DIRECTION('',(1.,-2.2E-16,0.));
#456 = DIRECTION('',(2.2E-16,1.,0.));
#457 = CONICAL_SURFACE('',#458,8.,0.785398163397);
#458 = AXIS2_PLACEMENT_3D('',#459,#460,#461);
#459 = CARTESIAN_POINT('',(9.5,-6.6E-16,0.));
#460 = DIRECTION('',(1.,-2.2E-16,0.));
#461 = DIRECTION('',(2.2E-16,1.,0.));
#462 = ADVANCED_FACE('',(#463),#474,.F.);
#463 = FACE_BOUND('',#464,.T.);
#464 = EDGE_LOOP('',(#465,#466,#472,#473));
#465 = ORIENTED_EDGE('',*,*,#163,.T.);
#466 = ORIENTED_EDGE('',*,*,#467,.T.);
#467 = EDGE_CURVE('',#156,#272,#468,.T.);
#468 = LINE('',#469,#470);
#469 = CARTESIAN_POINT('',(10.,11.661903789691,3.));
#470 = VECTOR('',#471,1.);
#471 = DIRECTION('',(-1.,1.1E-16,-1.1E-16));
#472 = ORIENTED_EDGE('',*,*,#279,.F.);
#473 = ORIENTED_EDGE('',*,*,#416,.F.);
#474 = CYLINDRICAL_SURFACE('',#475,1.5);
#475 = AXIS2_PLACEMENT_3D('',#476,#477,#478);
#476 = CARTESIAN_POINT('',(10.,11.661903789691,4.5));
#477 = DIRECTION('',(-1.,1.1E-16,-1.1E-16));
#478 = DIRECTION('',(-6.302475334928E-17,-0.932952303175,-0.36));
#479 = ADVANCED_FACE('',(#480,#491),#523,.T.);
#480 = FACE_BOUND('',#481,.T.);
#481 = EDGE_LOOP('',(#482));
#482 = ORIENTED_EDGE('',*,*,#483,.T.);
#483 = EDGE_CURVE('',#484,#484,#486,.T.);
#484 = VERTEX_POINT('',#485);
#485 = CARTESIAN_POINT('',(3.25,18.,-1.7763568394E-15));
#486 = CIRCLE('',#487,3.25);
#487 = AXIS2_PLACEMENT_3D('',#488,#489,#490);
#488 = CARTESIAN_POINT('',(3.55E-15,18.,-2.22E-15));
#489 = DIRECTION('',(-2.2E-16,0.,1.));
#490 = DIRECTION('',(1.,1.29E-15,2.2E-16));
#491 = FACE_BOUND('',#492,.T.);
#492 = EDGE_LOOP('',(#493,#494,#500,#501,#509,#517));
#493 = ORIENTED_EDGE('',*,*,#139,.F.);
#494 = ORIENTED_EDGE('',*,*,#495,.T.);
#495 = EDGE_CURVE('',#131,#314,#496,.T.);
#496 = LINE('',#497,#498);
#497 = CARTESIAN_POINT('',(10.,8.5,0.));
#498 = VECTOR('',#499,1.);
#499 = DIRECTION('',(-1.,-0.,-2.2E-16));
#500 = ORIENTED_EDGE('',*,*,#322,.F.);
#501 = ORIENTED_EDGE('',*,*,#502,.F.);
#502 = EDGE_CURVE('',#503,#323,#505,.T.);
#503 = VERTEX_POINT('',#504);
#504 = CARTESIAN_POINT('',(-5.,25.,-3.552713678801E-15));
#505 = LINE('',#506,#507);
#506 = CARTESIAN_POINT('',(-6.75,23.25,-3.11E-15));
#507 = VECTOR('',#508,1.);
#508 = DIRECTION('',(-0.707106781187,-0.707106781187,0.));
#509 = ORIENTED_EDGE('',*,*,#510,.F.);
#510 = EDGE_CURVE('',#511,#503,#513,.T.);
#511 = VERTEX_POINT('',#512);
#512 = CARTESIAN_POINT('',(5.,25.,-1.7763568394E-15));
#513 = LINE('',#514,#515);
#514 = CARTESIAN_POINT('',(10.,25.,0.));
#515 = VECTOR('',#516,1.);
#516 = DIRECTION('',(-1.,-0.,-1.1E-16));
#517 = ORIENTED_EDGE('',*,*,#518,.F.);
#518 = EDGE_CURVE('',#140,#511,#519,.T.);
#519 = LINE('',#520,#521);
#520 = CARTESIAN_POINT('',(11.75,18.25,-9.4E-16));
#521 = VECTOR('',#522,1.);
#522 = DIRECTION('',(-0.707106781187,0.707106781187,-1.6E-16));
#523 = PLANE('',#524);
#524 = AXIS2_PLACEMENT_3D('',#525,#526,#527);
#525 = CARTESIAN_POINT('',(10.,8.,0.));
#526 = DIRECTION('',(1.1E-16,0.,-1.));
#527 = DIRECTION('',(1.1E-16,1.,1.21E-32));
#528 = ADVANCED_FACE('',(#529,#540),#567,.F.);
#529 = FACE_BOUND('',#530,.F.);
#530 = EDGE_LOOP('',(#531));
#531 = ORIENTED_EDGE('',*,*,#532,.T.);
#532 = EDGE_CURVE('',#533,#533,#535,.T.);
#533 = VERTEX_POINT('',#534);
#534 = CARTESIAN_POINT('',(3.25,18.,3.));
#535 = CIRCLE('',#536,3.25);
#536 = AXIS2_PLACEMENT_3D('',#537,#538,#539);
#537 = CARTESIAN_POINT('',(3.55E-15,18.,3.));
#538 = DIRECTION('',(-2.2E-16,0.,1.));
#539 = DIRECTION('',(1.,1.29E-15,2.2E-16));
#540 = FACE_BOUND('',#541,.F.);
#541 = EDGE_LOOP('',(#542,#543,#544,#545,#553,#561));
#542 = ORIENTED_EDGE('',*,*,#155,.F.);
#543 = ORIENTED_EDGE('',*,*,#467,.T.);
#544 = ORIENTED_EDGE('',*,*,#269,.F.);
#545 = ORIENTED_EDGE('',*,*,#546,.F.);
#546 = EDGE_CURVE('',#547,#270,#549,.T.);
#547 = VERTEX_POINT('',#548);
#548 = CARTESIAN_POINT('',(-5.,25.,3.));
#549 = LINE('',#550,#551);
#550 = CARTESIAN_POINT('',(-6.104248688935,23.895751311065,3.));
#551 = VECTOR('',#552,1.);
#552 = DIRECTION('',(-0.707106781187,-0.707106781187,0.));
#553 = ORIENTED_EDGE('',*,*,#554,.F.);
#554 = EDGE_CURVE('',#555,#547,#557,.T.);
#555 = VERTEX_POINT('',#556);
#556 = CARTESIAN_POINT('',(5.,25.,3.));
#557 = LINE('',#558,#559);
#558 = CARTESIAN_POINT('',(10.,25.,3.));
#559 = VECTOR('',#560,1.);
#560 = DIRECTION('',(-1.,-0.,-1.1E-16));
#561 = ORIENTED_EDGE('',*,*,#562,.F.);
#562 = EDGE_CURVE('',#148,#555,#563,.T.);
#563 = LINE('',#564,#565);
#564 = CARTESIAN_POINT('',(11.104248688935,18.895751311065,3.));
#565 = VECTOR('',#566,1.);
#566 = DIRECTION('',(-0.707106781187,0.707106781187,-1.6E-16));
#567 = PLANE('',#568);
#568 = AXIS2_PLACEMENT_3D('',#569,#570,#571);
#569 = CARTESIAN_POINT('',(10.,10.583005244258,3.));
#570 = DIRECTION('',(1.1E-16,0.,-1.));
#571 = DIRECTION('',(1.1E-16,1.,1.21E-32));
#572 = ADVANCED_FACE('',(#573),#584,.T.);
#573 = FACE_BOUND('',#574,.F.);
#574 = EDGE_LOOP('',(#575,#576,#577,#578));
#575 = ORIENTED_EDGE('',*,*,#518,.F.);
#576 = ORIENTED_EDGE('',*,*,#147,.T.);
#577 = ORIENTED_EDGE('',*,*,#562,.T.);
#578 = ORIENTED_EDGE('',*,*,#579,.F.);
#579 = EDGE_CURVE('',#511,#555,#580,.T.);
#580 = LINE('',#581,#582);
#581 = CARTESIAN_POINT('',(5.,25.,0.));
#582 = VECTOR('',#583,1.);
#583 = DIRECTION('',(0.,2.2E-16,1.));
#584 = PLANE('',#585);
#585 = AXIS2_PLACEMENT_3D('',#586,#587,#588);
#586 = CARTESIAN_POINT('',(7.5,22.5,5.6E-16));
#587 = DIRECTION('',(0.707106781187,0.707106781187,2.E-16));
#588 = DIRECTION('',(2.564213562373E-16,2.642135623731E-17,-1.));
#589 = ADVANCED_FACE('',(#590),#601,.F.);
#590 = FACE_BOUND('',#591,.T.);
#591 = EDGE_LOOP('',(#592,#593,#599,#600));
#592 = ORIENTED_EDGE('',*,*,#546,.F.);
#593 = ORIENTED_EDGE('',*,*,#594,.T.);
#594 = EDGE_CURVE('',#547,#503,#595,.T.);
#595 = LINE('',#596,#597);
#596 = CARTESIAN_POINT('',(-5.,25.,3.));
#597 = VECTOR('',#598,1.);
#598 = DIRECTION('',(1.1E-16,-2.2E-16,-1.));
#599 = ORIENTED_EDGE('',*,*,#502,.T.);
#600 = ORIENTED_EDGE('',*,*,#330,.F.);
#601 = PLANE('',#602);
#602 = AXIS2_PLACEMENT_3D('',#603,#604,#605);
#603 = CARTESIAN_POINT('',(-7.5,22.5,3.));
#604 = DIRECTION('',(0.707106781187,-0.707106781187,0.));
#605 = DIRECTION('',(6.E-17,6.E-17,1.));
#606 = ADVANCED_FACE('',(#607),#635,.F.);
#607 = FACE_BOUND('',#608,.F.);
#608 = EDGE_LOOP('',(#609,#618,#619,#628));
#609 = ORIENTED_EDGE('',*,*,#610,.F.);
#610 = EDGE_CURVE('',#314,#611,#613,.T.);
#611 = VERTEX_POINT('',#612);
#612 = CARTESIAN_POINT('',(-9.5,7.984375,0.499755799741));
#613 = HYPERBOLA('',#614,5.915749635507,5.915749635507);
#614 = AXIS2_PLACEMENT_3D('',#615,#616,#617);
#615 = CARTESIAN_POINT('',(-1.5,4.1171875,4.2479242978));
#616 = DIRECTION('',(-1.6E-16,0.695970545354,0.718070330817));
#617 = DIRECTION('',(-1.,3.588546683883E-18,-2.262975029308E-16));
#618 = ORIENTED_EDGE('',*,*,#313,.T.);
#619 = ORIENTED_EDGE('',*,*,#620,.T.);
#620 = EDGE_CURVE('',#306,#621,#623,.T.);
#621 = VERTEX_POINT('',#622);
#622 = CARTESIAN_POINT('',(-9.5,-7.984375,0.499755799741));
#623 = HYPERBOLA('',#624,5.915749635507,5.915749635507);
#624 = AXIS2_PLACEMENT_3D('',#625,#626,#627);
#625 = CARTESIAN_POINT('',(-1.5,-4.1171875,4.2479242978));
#626 = DIRECTION('',(1.6E-16,0.695970545354,-0.718070330817));
#627 = DIRECTION('',(-1.,2.299490372566E-16,5.258100972305E-20));
#628 = ORIENTED_EDGE('',*,*,#629,.F.);
#629 = EDGE_CURVE('',#611,#621,#630,.T.);
#630 = CIRCLE('',#631,8.);
#631 = AXIS2_PLACEMENT_3D('',#632,#633,#634);
#632 = CARTESIAN_POINT('',(-9.5,4.33E-15,0.));
#633 = DIRECTION('',(1.,-2.2E-16,0.));
#634 = DIRECTION('',(2.2E-16,1.,-2.8E-16));
#635 = CONICAL_SURFACE('',#636,8.,0.785398163397);
#636 = AXIS2_PLACEMENT_3D('',#637,#638,#639);
#637 = CARTESIAN_POINT('',(-9.5,4.33E-15,0.));
#638 = DIRECTION('',(-1.,2.2E-16,0.));
#639 = DIRECTION('',(2.2E-16,1.,-2.8E-16));
#640 = ADVANCED_FACE('',(#641),#652,.F.);
#641 = FACE_BOUND('',#642,.F.);
#642 = EDGE_LOOP('',(#643,#649,#650,#651));
#643 = ORIENTED_EDGE('',*,*,#644,.F.);
#644 = EDGE_CURVE('',#386,#362,#645,.T.);
#645 = LINE('',#646,#647);
#646 = CARTESIAN_POINT('',(2.75,-18.,0.5));
#647 = VECTOR('',#648,1.);
#648 = DIRECTION('',(-0.707106781187,-9.1E-16,0.707106781187));
#649 = ORIENTED_EDGE('',*,*,#385,.T.);
#650 = ORIENTED_EDGE('',*,*,#644,.T.);
#651 = ORIENTED_EDGE('',*,*,#368,.F.);
#652 = CONICAL_SURFACE('',#653,2.75,0.785398163397);
#653 = AXIS2_PLACEMENT_3D('',#654,#655,#656);
#654 = CARTESIAN_POINT('',(1.78E-15,-18.,0.5));
#655 = DIRECTION('',(2.2E-16,-0.,-1.));
#656 = DIRECTION('',(1.,1.29E-15,2.2E-16));
#657 = ADVANCED_FACE('',(#658),#669,.T.);
#658 = FACE_BOUND('',#659,.T.);
#659 = EDGE_LOOP('',(#660,#661,#662,#663));
#660 = ORIENTED_EDGE('',*,*,#442,.F.);
#661 = ORIENTED_EDGE('',*,*,#401,.T.);
#662 = ORIENTED_EDGE('',*,*,#620,.T.);
#663 = ORIENTED_EDGE('',*,*,#664,.F.);
#664 = EDGE_CURVE('',#443,#621,#665,.T.);
#665 = LINE('',#666,#667);
#666 = CARTESIAN_POINT('',(10.,-7.984375,0.499755799741));
#667 = VECTOR('',#668,1.);
#668 = DIRECTION('',(-1.,-0.,-2.2E-16));
#669 = PLANE('',#670);
#670 = AXIS2_PLACEMENT_3D('',#671,#672,#673);
#671 = CARTESIAN_POINT('',(10.,-8.5,9.8E-16));
#672 = DIRECTION('',(1.6E-16,0.695970545354,-0.718070330817));
#673 = DIRECTION('',(-1.,1.409011313529E-18,-2.214537529308E-16));
#674 = ADVANCED_FACE('',(#675),#686,.T.);
#675 = FACE_BOUND('',#676,.T.);
#676 = EDGE_LOOP('',(#677,#678,#684,#685));
#677 = ORIENTED_EDGE('',*,*,#432,.T.);
#678 = ORIENTED_EDGE('',*,*,#679,.T.);
#679 = EDGE_CURVE('',#433,#611,#680,.T.);
#680 = LINE('',#681,#682);
#681 = CARTESIAN_POINT('',(10.,7.984375,0.499755799741));
#682 = VECTOR('',#683,1.);
#683 = DIRECTION('',(-1.,-0.,-2.2E-16));
#684 = ORIENTED_EDGE('',*,*,#610,.F.);
#685 = ORIENTED_EDGE('',*,*,#495,.F.);
#686 = PLANE('',#687);
#687 = AXIS2_PLACEMENT_3D('',#688,#689,#690);
#688 = CARTESIAN_POINT('',(10.,8.5,0.));
#689 = DIRECTION('',(1.6E-16,-0.695970545354,-0.718070330817));
#690 = DIRECTION('',(-1.,-1.409011313529E-18,-2.214537529308E-16));
#691 = ADVANCED_FACE('',(#692),#698,.F.);
#692 = FACE_BOUND('',#693,.F.);
#693 = EDGE_LOOP('',(#694,#695,#696,#697));
#694 = ORIENTED_EDGE('',*,*,#451,.F.);
#695 = ORIENTED_EDGE('',*,*,#679,.T.);
#696 = ORIENTED_EDGE('',*,*,#629,.T.);
#697 = ORIENTED_EDGE('',*,*,#664,.F.);
#698 = CYLINDRICAL_SURFACE('',#699,8.);
#699 = AXIS2_PLACEMENT_3D('',#700,#701,#702);
#700 = CARTESIAN_POINT('',(10.,0.,0.));
#701 = DIRECTION('',(1.,-1.1E-16,0.));
#702 = DIRECTION('',(1.1E-16,1.,0.));
#703 = ADVANCED_FACE('',(#704),#723,.F.);
#704 = FACE_BOUND('',#705,.F.);
#705 = EDGE_LOOP('',(#706,#714,#715,#716));
#706 = ORIENTED_EDGE('',*,*,#707,.F.);
#707 = EDGE_CURVE('',#484,#708,#710,.T.);
#708 = VERTEX_POINT('',#709);
#709 = CARTESIAN_POINT('',(2.75,18.,0.5));
#710 = LINE('',#711,#712);
#711 = CARTESIAN_POINT('',(2.75,18.,0.5));
#712 = VECTOR('',#713,1.);
#713 = DIRECTION('',(-0.707106781187,-9.1E-16,0.707106781187));
#714 = ORIENTED_EDGE('',*,*,#483,.T.);
#715 = ORIENTED_EDGE('',*,*,#707,.T.);
#716 = ORIENTED_EDGE('',*,*,#717,.F.);
#717 = EDGE_CURVE('',#708,#708,#718,.T.);
#718 = CIRCLE('',#719,2.75);
#719 = AXIS2_PLACEMENT_3D('',#720,#721,#722);
#720 = CARTESIAN_POINT('',(3.55E-15,18.,0.5));
#721 = DIRECTION('',(-2.2E-16,0.,1.));
#722 = DIRECTION('',(1.,1.29E-15,2.2E-16));
#723 = CONICAL_SURFACE('',#724,2.75,0.785398163397);
#724 = AXIS2_PLACEMENT_3D('',#725,#726,#727);
#725 = CARTESIAN_POINT('',(3.55E-15,18.,0.5));
#726 = DIRECTION('',(2.2E-16,-0.,-1.));
#727 = DIRECTION('',(1.,1.29E-15,2.2E-16));
#728 = ADVANCED_FACE('',(#729),#735,.T.);
#729 = FACE_BOUND('',#730,.T.);
#730 = EDGE_LOOP('',(#731,#732,#733,#734));
#731 = ORIENTED_EDGE('',*,*,#554,.F.);
#732 = ORIENTED_EDGE('',*,*,#579,.F.);
#733 = ORIENTED_EDGE('',*,*,#510,.T.);
#734 = ORIENTED_EDGE('',*,*,#594,.F.);
#735 = PLANE('',#736);
#736 = AXIS2_PLACEMENT_3D('',#737,#738,#739);
#737 = CARTESIAN_POINT('',(10.,25.,0.));
#738 = DIRECTION('',(0.,1.,-1.1E-16));
#739 = DIRECTION('',(0.,1.1E-16,1.));
#740 = ADVANCED_FACE('',(#741),#760,.F.);
#741 = FACE_BOUND('',#742,.T.);
#742 = EDGE_LOOP('',(#743,#751,#752,#753));
#743 = ORIENTED_EDGE('',*,*,#744,.F.);
#744 = EDGE_CURVE('',#533,#745,#747,.T.);
#745 = VERTEX_POINT('',#746);
#746 = CARTESIAN_POINT('',(2.75,18.,2.5));
#747 = LINE('',#748,#749);
#748 = CARTESIAN_POINT('',(2.75,18.,2.5));
#749 = VECTOR('',#750,1.);
#750 = DIRECTION('',(-0.707106781187,-9.1E-16,-0.707106781187));
#751 = ORIENTED_EDGE('',*,*,#532,.T.);
#752 = ORIENTED_EDGE('',*,*,#744,.T.);
#753 = ORIENTED_EDGE('',*,*,#754,.F.);
#754 = EDGE_CURVE('',#745,#745,#755,.T.);
#755 = CIRCLE('',#756,2.75);
#756 = AXIS2_PLACEMENT_3D('',#757,#758,#759);
#757 = CARTESIAN_POINT('',(3.55E-15,18.,2.5));
#758 = DIRECTION('',(-2.2E-16,0.,1.));
#759 = DIRECTION('',(1.,1.29E-15,2.2E-16));
#760 = CONICAL_SURFACE('',#761,2.75,0.785398163397);
#761 = AXIS2_PLACEMENT_3D('',#762,#763,#764);
#762 = CARTESIAN_POINT('',(3.55E-15,18.,2.5));
#763 = DIRECTION('',(-2.2E-16,-0.,1.));
#764 = DIRECTION('',(1.,1.29E-15,2.2E-16));
#765 = ADVANCED_FACE('',(#766),#776,.F.);
#766 = FACE_BOUND('',#767,.F.);
#767 = EDGE_LOOP('',(#768,#773,#774,#775));
#768 = ORIENTED_EDGE('',*,*,#769,.F.);
#769 = EDGE_CURVE('',#708,#745,#770,.T.);
#770 = B_SPLINE_CURVE_WITH_KNOTS('',1,(#771,#772),.UNSPECIFIED.,.F.,.F.,
  (2,2),(-111.0265211559,111.02652115598),.PIECEWISE_BEZIER_KNOTS.);
#771 = CARTESIAN_POINT('',(2.75,18.,-111.0265211559));
#772 = CARTESIAN_POINT('',(2.75,18.,111.02652115598));
#773 = ORIENTED_EDGE('',*,*,#717,.T.);
#774 = ORIENTED_EDGE('',*,*,#769,.T.);
#775 = ORIENTED_EDGE('',*,*,#754,.F.);
#776 = CYLINDRICAL_SURFACE('',#777,2.75);
#777 = AXIS2_PLACEMENT_3D('',#778,#779,#780);
#778 = CARTESIAN_POINT('',(3.55E-15,18.,-1.11E-15));
#779 = DIRECTION('',(-1.1E-16,0.,1.));
#780 = DIRECTION('',(1.,0.,1.1E-16));
#781 = ( GEOMETRIC_REPRESENTATION_CONTEXT(3) 
GLOBAL_UNCERTAINTY_ASSIGNED_CONTEXT((#785)) GLOBAL_UNIT_ASSIGNED_CONTEXT
((#782,#783,#784)) REPRESENTATION_CONTEXT('Context #1',
  '3D Context with UNIT and UNCERTAINTY') );
#782 = ( LENGTH_UNIT() NAMED_UNIT(*) SI_UNIT(.MILLI.,.METRE.) );
#783 = ( NAMED_UNIT(*) PLANE_ANGLE_UNIT() SI_UNIT($,.RADIAN.) );
#784 = ( NAMED_UNIT(*) SI_UNIT($,.STERADIAN.) SOLID_ANGLE_UNIT() );
#785 = UNCERTAINTY_MEASURE_WITH_UNIT(LENGTH_MEASURE(1.E-06),#782,
  'distance_accuracy_value','confusion accuracy');
#786 = PRODUCT_RELATED_PRODUCT_CATEGORY('part',$,(#7));
#787 = MECHANICAL_DESIGN_GEOMETRIC_PRESENTATION_REPRESENTATION('',(#788)
  ,#781);
#788 = STYLED_ITEM('color',(#789),#15);
#789 = PRESENTATION_STYLE_ASSIGNMENT((#790,#796));
#790 = SURFACE_STYLE_USAGE(.BOTH.,#791);
#791 = SURFACE_SIDE_STYLE('',(#792));
#792 = SURFACE_STYLE_FILL_AREA(#793);
#793 = FILL_AREA_STYLE('',(#794));
#794 = FILL_AREA_STYLE_COLOUR('',#795);
#795 = COLOUR_RGB('',0.976470577825,0.678431390124,0.121568629232);
#796 = CURVE_STYLE('',#797,POSITIVE_LENGTH_MEASURE(0.1),#798);
#797 = DRAUGHTING_PRE_DEFINED_CURVE_FONT('continuous');
#798 = COLOUR_RGB('',9.803921802644E-02,9.803921802644E-02,
  9.803921802644E-02);
ENDSEC;
END-ISO-10303-21;
